<svg width="204" height="30" viewBox="0 0 204 30" fill="none" xmlns="http://www.w3.org/2000/svg">
    <g clip-path="url(#clip0_1_3)">
        <mask id="mask0_1_3" style="mask-type:luminance" maskUnits="userSpaceOnUse" x="0" y="0" width="204" height="30">
            <path d="M0 0H204V30H0V0Z" fill="white"/>
        </mask>
        <g mask="url(#mask0_1_3)">
            <path d="M52.688 13.028C52.468 13.028 52.251 13.036 52.034 13.043C51.9988 13.0449 51.9643 13.053 51.932 13.067C51.8746 13.0865 51.8229 13.1201 51.7817 13.1646C51.7405 13.2091 51.711 13.2632 51.696 13.322L50.766 16.571C50.365 17.968 50.514 19.258 51.188 20.205C51.806 21.081 52.834 21.595 54.082 21.655L59.127 21.961C59.277 21.969 59.407 22.041 59.486 22.16C59.5274 22.2235 59.5535 22.2957 59.5623 22.371C59.5712 22.4463 59.5625 22.5226 59.537 22.594C59.4964 22.71 59.4232 22.8119 59.3262 22.8875C59.2292 22.963 59.1125 23.009 58.99 23.02L53.748 23.326C50.9 23.458 47.836 25.782 46.761 28.616L46.383 29.616C46.3667 29.6575 46.3606 29.7022 46.3651 29.7465C46.3696 29.7908 46.3845 29.8334 46.4088 29.8708C46.433 29.9081 46.4659 29.9391 46.5045 29.9613C46.5431 29.9834 46.5865 29.996 46.631 29.998H64.685C64.79 29.9984 64.8922 29.9644 64.976 29.9012C65.0598 29.838 65.1206 29.7491 65.149 29.648C65.4697 28.4954 65.6311 27.3044 65.629 26.108C65.629 18.888 59.84 13.036 52.696 13.036" fill="#FBAD41"/>
            <path d="M85.519 18.886H88.509V27.135H93.727V29.782H85.519V18.886ZM96.819 24.365V24.333C96.819 21.203 99.312 18.668 102.64 18.668C105.967 18.668 108.429 21.176 108.429 24.301V24.333C108.429 27.462 105.936 29.998 102.608 29.998C99.28 29.998 96.819 27.493 96.819 24.365ZM105.381 24.365V24.333C105.381 22.76 104.258 21.391 102.608 21.391C100.958 21.391 99.883 22.728 99.883 24.301V24.333C99.883 25.905 101.005 27.275 102.64 27.275C104.274 27.275 105.381 25.937 105.381 24.365ZM112.086 25.003V18.89H115.119V24.945C115.119 26.517 115.902 27.262 117.104 27.262C118.305 27.262 119.089 26.545 119.089 25.02V18.886H122.121V24.925C122.121 28.444 120.136 29.981 117.072 29.981C114.008 29.981 112.082 28.408 112.082 25.001M126.694 18.889H130.853C134.701 18.889 136.934 21.13 136.934 24.271V24.303C136.934 27.443 134.669 29.78 130.79 29.78H126.694V18.886V18.889ZM130.896 27.105C132.684 27.105 133.866 26.11 133.866 24.351V24.319C133.866 22.575 132.681 21.564 130.896 21.564H129.679V27.105H130.896ZM141.277 18.886H149.898V21.534H144.262V23.384H149.358V25.889H144.262V29.782H141.277V18.886ZM154.054 18.886H157.043V27.135H162.262V29.782H154.054V18.886ZM170.067 18.809H172.945L177.534 29.78H174.332L173.544 27.834H169.385L168.617 29.78H165.474L170.063 18.809H170.067ZM172.686 25.485L171.484 22.388L170.267 25.485H172.686ZM181.383 18.889H186.479C188.126 18.889 189.268 19.327 189.988 20.071C190.623 20.692 190.942 21.536 190.942 22.607V22.639C190.942 24.303 190.063 25.409 188.724 25.983L191.296 29.78H187.846L185.676 26.48H184.368V29.78H181.379V18.886L181.383 18.889ZM186.342 24.119C187.358 24.119 187.944 23.622 187.944 22.829V22.798C187.944 21.942 187.33 21.508 186.326 21.508H184.372V24.124H186.345L186.342 24.12V24.119ZM195.253 18.886H203.922V21.454H198.211V23.102H203.386V25.486H198.211V27.214H204.001V29.782H195.253V18.886ZM78.976 25.642C78.558 26.598 77.676 27.275 76.506 27.275C74.876 27.275 73.75 25.905 73.75 24.333V24.3C73.75 22.727 74.844 21.39 76.475 21.39C77.704 21.39 78.641 22.154 79.039 23.197H82.186C81.681 20.606 79.429 18.667 76.503 18.667C73.179 18.667 70.682 21.203 70.682 24.332V24.364C70.682 27.493 73.143 29.997 76.472 29.997C79.315 29.997 81.54 28.133 82.127 25.637H78.972L78.976 25.642Z" fill="white"/>
            <path d="M44.808 29.578L45.142 28.403C45.544 27.006 45.395 25.716 44.722 24.769C44.102 23.893 43.075 23.379 41.826 23.319L18.161 23.013C18.0874 23.0117 18.0151 22.9929 17.9501 22.9583C17.8851 22.9238 17.8292 22.8743 17.787 22.814C17.7455 22.7506 17.7192 22.6784 17.7102 22.6031C17.7011 22.5278 17.7096 22.4515 17.735 22.38C17.776 22.2632 17.8499 22.1608 17.9479 22.0852C18.0459 22.0096 18.1637 21.964 18.287 21.954L42.173 21.648C45.009 21.517 48.073 19.192 49.148 16.358L50.51 12.758C50.5655 12.6054 50.5793 12.4407 50.55 12.281C48.998 5.259 42.79 0 35.368 0C28.526 0 22.721 4.462 20.638 10.665C19.2356 9.59853 17.4792 9.10713 15.727 9.291C12.447 9.621 9.807 12.293 9.481 15.609C9.39659 16.4372 9.45751 17.2738 9.661 18.081C4.301 18.241 0.000999451 22.679 0.000999451 28.133C0.000999451 28.626 0.0359994 29.112 0.106999 29.586C0.12113 29.6972 0.175361 29.7994 0.259508 29.8734C0.343655 29.9474 0.45193 29.9882 0.563999 29.988H44.268C44.3911 29.986 44.5102 29.9442 44.6075 29.8688C44.7049 29.7935 44.7752 29.6886 44.808 29.57" fill="#F6821F"/>
        </g>
    </g>
    <defs>
        <clipPath id="clip0_1_3">
            <rect width="204" height="30" fill="white"/>
        </clipPath>
    </defs>
</svg>
